<svg width="32" height="32" viewBox="0 0 32 32" fill="none" xmlns="http://www.w3.org/2000/svg">
<path d="M15.9973 22.3337C15.464 22.3337 14.9307 22.2937 14.424 22.2003C11.5973 21.787 9.02406 20.1603 7.39739 17.747C6.26406 16.0403 5.66406 14.0537 5.66406 12.0003C5.66406 6.30699 10.304 1.66699 15.9973 1.66699C21.6907 1.66699 26.3307 6.30699 26.3307 12.0003C26.3307 14.0537 25.7307 16.0403 24.5973 17.747C22.9574 20.1737 20.384 21.787 17.5307 22.2137C17.064 22.2937 16.5307 22.3337 15.9973 22.3337ZM15.9973 3.66699C11.3973 3.66699 7.66406 7.40033 7.66406 12.0003C7.66406 13.667 8.14406 15.267 9.05072 16.627C10.3707 18.5737 12.4373 19.8803 14.7307 20.2137C15.584 20.3603 16.424 20.3603 17.2107 20.2137C19.544 19.8803 21.6107 18.5603 22.9307 16.6136C23.8373 15.2536 24.3173 13.6536 24.3173 11.987C24.3307 7.40031 20.5973 3.66699 15.9973 3.66699Z" fill="#3083FF"/>
<path d="M8.62577 30.1196C8.43911 30.1196 8.26577 30.093 8.07911 30.053C7.21244 29.853 6.54577 29.1863 6.34577 28.3196L5.87911 26.3596C5.85244 26.2396 5.75911 26.1463 5.62577 26.1063L3.42577 25.5863C2.59911 25.3863 1.94577 24.773 1.71911 23.9596C1.49244 23.1463 1.71911 22.2663 2.31911 21.6663L7.51911 16.4663C7.73244 16.253 8.02577 16.1463 8.31911 16.173C8.61244 16.1996 8.87911 16.3596 9.05244 16.613C10.3724 18.5596 12.4391 19.8796 14.7458 20.213C15.5991 20.3596 16.4391 20.3596 17.2258 20.213C19.5591 19.8796 21.6258 18.5596 22.9458 16.613C23.1058 16.3596 23.3858 16.1996 23.6791 16.173C23.9724 16.1463 24.2658 16.253 24.4791 16.4663L29.6791 21.6663C30.2791 22.2663 30.5058 23.1463 30.2791 23.9596C30.0524 24.773 29.3858 25.3996 28.5724 25.5863L26.3724 26.1063C26.2524 26.1329 26.1591 26.2263 26.1191 26.3596L25.6524 28.3196C25.4524 29.1863 24.7858 29.853 23.9191 30.053C23.0524 30.2663 22.1591 29.9596 21.5991 29.2796L15.9991 22.8396L10.3991 29.293C9.94577 29.8263 9.30577 30.1196 8.62577 30.1196ZM8.11911 18.7063L3.73244 23.093C3.61244 23.213 3.62577 23.3463 3.65244 23.4263C3.66577 23.493 3.73244 23.6263 3.89244 23.653L6.09244 24.173C6.95911 24.373 7.62577 25.0396 7.82577 25.9063L8.29244 27.8663C8.33244 28.0396 8.46577 28.093 8.54577 28.1196C8.62577 28.133 8.75911 28.1463 8.87911 28.013L13.9858 22.133C11.7191 21.693 9.63911 20.4796 8.11911 18.7063ZM18.0124 22.1196L23.1191 27.9863C23.2391 28.133 23.3858 28.1329 23.4658 28.1063C23.5458 28.0929 23.6658 28.0263 23.7191 27.853L24.1858 25.893C24.3858 25.0263 25.0524 24.3596 25.9191 24.1596L28.1191 23.6396C28.2791 23.5996 28.3458 23.4796 28.3591 23.413C28.3858 23.3463 28.3991 23.1996 28.2791 23.0796L23.8924 18.693C22.3591 20.4663 20.2924 21.6796 18.0124 22.1196Z" fill="#3083FF"/>
<path d="M18.5188 17.187C18.1722 17.187 17.7588 17.0937 17.2655 16.8003L15.9988 16.0403L14.7322 16.787C13.5722 17.4803 12.8122 17.0803 12.5322 16.8803C12.2522 16.6803 11.6522 16.0803 11.9588 14.7603L12.2788 13.387L11.2122 12.4003C10.6255 11.8136 10.4122 11.107 10.6122 10.467C10.8122 9.827 11.3988 9.37365 12.2255 9.24032L13.6522 9.00033L14.3322 7.507C14.7188 6.747 15.3188 6.32031 15.9988 6.32031C16.6788 6.32031 17.2922 6.76035 17.6655 7.52035L18.4522 9.09367L19.7722 9.25366C20.5855 9.387 21.1722 9.84031 21.3855 10.4803C21.5855 11.1203 21.3722 11.827 20.7855 12.4137L19.6788 13.5203L20.0255 14.7603C20.3322 16.0803 19.7322 16.6803 19.4522 16.8803C19.3055 17.0003 18.9855 17.187 18.5188 17.187ZM12.8122 11.187L13.7322 12.107C14.1588 12.5336 14.3722 13.2537 14.2388 13.8403L13.9855 14.907L15.0522 14.2803C15.6255 13.947 16.3988 13.947 16.9588 14.2803L18.0255 14.907L17.7855 13.8403C17.6522 13.2403 17.8522 12.5336 18.2788 12.107L19.1988 11.187L18.0388 10.987C17.4788 10.8936 16.9188 10.4803 16.6655 9.97367L15.9988 8.66699L15.3322 10.0003C15.0922 10.4937 14.5322 10.9203 13.9722 11.0137L12.8122 11.187Z" fill="#3083FF"/>
</svg>
